<?xml version="1.0" encoding="utf-8"?>
<!-- Generator: Adobe Illustrator 23.0.6, SVG Export Plug-In . SVG Version: 6.00 Build 0)  -->
<svg version="1.1" id="Layer_1" xmlns="http://www.w3.org/2000/svg" xmlns:xlink="http://www.w3.org/1999/xlink" x="0px" y="0px"
	 viewBox="0 0 1800 1800" style="enable-background:new 0 0 1800 1800;" xml:space="preserve">
<style type="text/css">
	.st0{fill:#FF0000;}
</style>
<g>
	<g>
		<path class="st0" d="M1585.36,1385.64L959.52,356.94c-32.67-53.7-86.14-53.7-118.8,0l-626.09,1028.7
			c-32.72,53.77-8.65,97.69,53.34,97.69h1264.05C1594.05,1483.33,1618.09,1439.41,1585.36,1385.64z M900,1330.21
			c-36.25,0-65.62-29.37-65.62-65.62c0-36.25,29.38-65.62,65.62-65.62c36.23,0,65.62,29.37,65.62,65.62
			C965.62,1300.84,936.23,1330.21,900,1330.21z M965.62,1045.84c0,36.09-29.51,65.62-65.62,65.62c-36.09,0-65.62-29.53-65.62-65.62
			V717.71c0-36.09,29.53-65.62,65.62-65.62c36.11,0,65.62,29.53,65.62,65.62V1045.84z"/>
	</g>
</g>
</svg>
