<?xml version="1.0" encoding="utf-8"?>
<!-- Generator: Adobe Illustrator 23.0.6, SVG Export Plug-In . SVG Version: 6.00 Build 0)  -->
<svg version="1.1" id="Layer_1" xmlns="http://www.w3.org/2000/svg" xmlns:xlink="http://www.w3.org/1999/xlink" x="0px" y="0px"
	 viewBox="0 0 200 200" style="enable-background:new 0 0 200 200;" xml:space="preserve">
<style type="text/css">
	.st0{fill:#343433;}
</style>
<g>
	<path class="st0" d="M83.99,130.49l-10.17,5.67c-0.53,0.29-1.16-0.14-1.07-0.74l1.8-12.54c0.05-0.33,0.43-0.48,0.69-0.27l8.82,7.17
		C84.29,129.98,84.25,130.35,83.99,130.49z"/>
	<path class="st0" d="M159.93,59.81l-0.7,1.2l-48.14,82.64c-0.57,0.98-1.87,1.21-2.75,0.5L76.66,118.7l0.11-0.81l49.51-36.97
		c0.61-0.45,0.75-1.31,0.33-1.94l0,0c-0.43-0.64-1.29-0.82-1.94-0.41l-54.31,34.45l-0.03,0.22l-2.75,19.19
		c-0.09,0.66-1.03,0.68-1.16,0.04l-5.38-26.8l-4.14-3.37L40.34,88.86c-1.16-0.95-0.76-2.82,0.69-3.2l102.52-27.27l13.25-2.88
		c0.22-0.05,0.44-0.07,0.65-0.07C159.59,55.43,161.09,57.81,159.93,59.81z"/>
</g>
</svg>
